solid OpenSCAD_Model
  facet normal -1 0 0
    outer loop
      vertex 0 0 0
      vertex 0 0 12
      vertex 0 60 0
    endloop
  endfacet
  facet normal -1 0 0
    outer loop
      vertex 0 60 0
      vertex 0 0 12
      vertex 0 60 12
    endloop
  endfacet
  facet normal 0 -1 0
    outer loop
      vertex 0 0 12
      vertex 0 0 0
      vertex 60 0 0
    endloop
  endfacet
  facet normal 0 -1 0
    outer loop
      vertex 60 0 12
      vertex 0 0 12
      vertex 60 0 0
    endloop
  endfacet
  facet normal 0 0 -1
    outer loop
      vertex 0 0 0
      vertex 0 60 0
      vertex 60 0 0
    endloop
  endfacet
  facet normal 0 0 -1
    outer loop
      vertex 60 0 0
      vertex 0 60 0
      vertex 60 60 0
    endloop
  endfacet
  facet normal 0 1 0
    outer loop
      vertex 0 60 0
      vertex 0 60 12
      vertex 60 60 0
    endloop
  endfacet
  facet normal 0 1 0
    outer loop
      vertex 60 60 0
      vertex 0 60 12
      vertex 60 60 12
    endloop
  endfacet
  facet normal 0 0 1
    outer loop
      vertex 1.5 1.5 12
      vertex 0 0 12
      vertex 60 0 12
    endloop
  endfacet
  facet normal 0 0 1
    outer loop
      vertex 58.5 21 12
      vertex 40.5 21 12
      vertex 58.5 19.5 12
    endloop
  endfacet
  facet normal 0 0 1
    outer loop
      vertex 19.5 1.5 12
      vertex 1.5 1.5 12
      vertex 60 0 12
    endloop
  endfacet
  facet normal 0 0 1
    outer loop
      vertex 0 60 12
      vertex 0 0 12
      vertex 1.5 1.5 12
    endloop
  endfacet
  facet normal 0 0 1
    outer loop
      vertex 39 21 12
      vertex 21 21 12
      vertex 39 19.5 12
    endloop
  endfacet
  facet normal 0 0 1
    outer loop
      vertex 0 60 12
      vertex 1.5 1.5 12
      vertex 1.5 19.5 12
    endloop
  endfacet
  facet normal 0 0 1
    outer loop
      vertex 58.5 19.5 12
      vertex 58.5 1.5 12
      vertex 60 0 12
    endloop
  endfacet
  facet normal 0 0 1
    outer loop
      vertex 1.5 21 12
      vertex 1.5 19.5 12
      vertex 19.5 19.5 12
    endloop
  endfacet
  facet normal 0 0 1
    outer loop
      vertex 21 1.5 12
      vertex 19.5 1.5 12
      vertex 60 0 12
    endloop
  endfacet
  facet normal 0 0 1
    outer loop
      vertex 0 60 12
      vertex 1.5 19.5 12
      vertex 1.5 21 12
    endloop
  endfacet
  facet normal 0 0 1
    outer loop
      vertex 40.5 1.5 12
      vertex 40.5 19.5 12
      vertex 39 19.5 12
    endloop
  endfacet
  facet normal 0 0 1
    outer loop
      vertex 0 60 12
      vertex 1.5 21 12
      vertex 1.5 39 12
    endloop
  endfacet
  facet normal 0 0 1
    outer loop
      vertex 39 39 12
      vertex 40.5 19.5 12
      vertex 40.5 21 12
    endloop
  endfacet
  facet normal 0 0 1
    outer loop
      vertex 21 1.5 12
      vertex 21 19.5 12
      vertex 19.5 19.5 12
    endloop
  endfacet
  facet normal 0 0 1
    outer loop
      vertex 1.5 40.5 12
      vertex 1.5 58.5 12
      vertex 0 60 12
    endloop
  endfacet
  facet normal 0 0 1
    outer loop
      vertex 1.5 39 12
      vertex 19.5 39 12
      vertex 1.5 40.5 12
    endloop
  endfacet
  facet normal 0 0 1
    outer loop
      vertex 0 60 12
      vertex 1.5 39 12
      vertex 1.5 40.5 12
    endloop
  endfacet
  facet normal 0 0 1
    outer loop
      vertex 60 60 12
      vertex 0 60 12
      vertex 1.5 58.5 12
    endloop
  endfacet
  facet normal 0 0 1
    outer loop
      vertex 21 40.5 12
      vertex 21 58.5 12
      vertex 19.5 58.5 12
    endloop
  endfacet
  facet normal 0 0 1
    outer loop
      vertex 60 60 12
      vertex 1.5 58.5 12
      vertex 19.5 58.5 12
    endloop
  endfacet
  facet normal 0 0 1
    outer loop
      vertex 21 39 12
      vertex 19.5 40.5 12
      vertex 19.5 39 12
    endloop
  endfacet
  facet normal 0 0 1
    outer loop
      vertex 39 1.5 12
      vertex 21 1.5 12
      vertex 60 0 12
    endloop
  endfacet
  facet normal 0 0 1
    outer loop
      vertex 19.5 21 12
      vertex 19.5 19.5 12
      vertex 21 19.5 12
    endloop
  endfacet
  facet normal 0 0 1
    outer loop
      vertex 21 21 12
      vertex 21 39 12
      vertex 19.5 39 12
    endloop
  endfacet
  facet normal 0 0 1
    outer loop
      vertex 21 21 12
      vertex 19.5 21 12
      vertex 39 19.5 12
    endloop
  endfacet
  facet normal 0 0 1
    outer loop
      vertex 40.5 1.5 12
      vertex 39 1.5 12
      vertex 60 0 12
    endloop
  endfacet
  facet normal 0 0 1
    outer loop
      vertex 19.5 40.5 12
      vertex 1.5 40.5 12
      vertex 19.5 39 12
    endloop
  endfacet
  facet normal 0 0 1
    outer loop
      vertex 19.5 39 12
      vertex 19.5 21 12
      vertex 21 21 12
    endloop
  endfacet
  facet normal 0 0 1
    outer loop
      vertex 19.5 58.5 12
      vertex 19.5 40.5 12
      vertex 21 39 12
    endloop
  endfacet
  facet normal 0 0 1
    outer loop
      vertex 40.5 21 12
      vertex 40.5 39 12
      vertex 39 39 12
    endloop
  endfacet
  facet normal 0 0 1
    outer loop
      vertex 58.5 1.5 12
      vertex 40.5 1.5 12
      vertex 60 0 12
    endloop
  endfacet
  facet normal 0 0 1
    outer loop
      vertex 19.5 58.5 12
      vertex 21 39 12
      vertex 21 40.5 12
    endloop
  endfacet
  facet normal 0 0 1
    outer loop
      vertex 58.5 58.5 12
      vertex 58.5 40.5 12
      vertex 60 60 12
    endloop
  endfacet
  facet normal 0 0 1
    outer loop
      vertex 60 60 12
      vertex 19.5 58.5 12
      vertex 21 58.5 12
    endloop
  endfacet
  facet normal 0 0 1
    outer loop
      vertex 60 60 12
      vertex 21 58.5 12
      vertex 39 58.5 12
    endloop
  endfacet
  facet normal 0 0 1
    outer loop
      vertex 40.5 40.5 12
      vertex 39 40.5 12
      vertex 39 39 12
    endloop
  endfacet
  facet normal 0 0 1
    outer loop
      vertex 40.5 58.5 12
      vertex 39 58.5 12
      vertex 39 40.5 12
    endloop
  endfacet
  facet normal 0 0 1
    outer loop
      vertex 19.5 21 12
      vertex 1.5 21 12
      vertex 19.5 19.5 12
    endloop
  endfacet
  facet normal 0 0 1
    outer loop
      vertex 39 39 12
      vertex 39 21 12
      vertex 40.5 19.5 12
    endloop
  endfacet
  facet normal 0 0 1
    outer loop
      vertex 60 60 12
      vertex 58.5 19.5 12
      vertex 60 0 12
    endloop
  endfacet
  facet normal 0 0 1
    outer loop
      vertex 39 40.5 12
      vertex 21 40.5 12
      vertex 39 39 12
    endloop
  endfacet
  facet normal 0 0 1
    outer loop
      vertex 40.5 19.5 12
      vertex 58.5 19.5 12
      vertex 40.5 21 12
    endloop
  endfacet
  facet normal 0 0 1
    outer loop
      vertex 58.5 40.5 12
      vertex 40.5 40.5 12
      vertex 40.5 39 12
    endloop
  endfacet
  facet normal 0 0 1
    outer loop
      vertex 40.5 40.5 12
      vertex 39 39 12
      vertex 40.5 39 12
    endloop
  endfacet
  facet normal 0 0 1
    outer loop
      vertex 58.5 40.5 12
      vertex 40.5 39 12
      vertex 58.5 39 12
    endloop
  endfacet
  facet normal 0 0 1
    outer loop
      vertex 60 60 12
      vertex 58.5 21 12
      vertex 58.5 19.5 12
    endloop
  endfacet
  facet normal 0 0 1
    outer loop
      vertex 60 60 12
      vertex 58.5 39 12
      vertex 58.5 21 12
    endloop
  endfacet
  facet normal 0 0 1
    outer loop
      vertex 40.5 58.5 12
      vertex 58.5 58.5 12
      vertex 60 60 12
    endloop
  endfacet
  facet normal 0 0 1
    outer loop
      vertex 60 60 12
      vertex 39 58.5 12
      vertex 40.5 58.5 12
    endloop
  endfacet
  facet normal 0 0 1
    outer loop
      vertex 60 60 12
      vertex 58.5 40.5 12
      vertex 58.5 39 12
    endloop
  endfacet
  facet normal 0 0 1
    outer loop
      vertex 40.5 40.5 12
      vertex 40.5 58.5 12
      vertex 39 40.5 12
    endloop
  endfacet
  facet normal 0 0 1
    outer loop
      vertex 21 19.5 12
      vertex 39 19.5 12
      vertex 19.5 21 12
    endloop
  endfacet
  facet normal 0 0 1
    outer loop
      vertex 39 19.5 12
      vertex 39 1.5 12
      vertex 40.5 1.5 12
    endloop
  endfacet
  facet normal 0 0 1
    outer loop
      vertex 39 21 12
      vertex 39 19.5 12
      vertex 40.5 19.5 12
    endloop
  endfacet
  facet normal 0 0 1
    outer loop
      vertex 19.5 19.5 12
      vertex 19.5 1.5 12
      vertex 21 1.5 12
    endloop
  endfacet
  facet normal 0 0 1
    outer loop
      vertex 21 39 12
      vertex 39 39 12
      vertex 21 40.5 12
    endloop
  endfacet
  facet normal 1 0 0
    outer loop
      vertex 60 0 12
      vertex 60 0 0
      vertex 60 60 0
    endloop
  endfacet
  facet normal 1 0 0
    outer loop
      vertex 60 60 12
      vertex 60 0 12
      vertex 60 60 0
    endloop
  endfacet
  facet normal 1 0 0
    outer loop
      vertex 1.5 19.5 1
      vertex 1.5 19.5 12
      vertex 1.5 1.5 12
    endloop
  endfacet
  facet normal 1 0 0
    outer loop
      vertex 1.5 1.5 1
      vertex 1.5 19.5 1
      vertex 1.5 1.5 12
    endloop
  endfacet
  facet normal 0 1 0
    outer loop
      vertex 19.5 1.5 12
      vertex 19.5 1.5 1
      vertex 1.5 1.5 12
    endloop
  endfacet
  facet normal 0 1 0
    outer loop
      vertex 1.5 1.5 12
      vertex 19.5 1.5 1
      vertex 1.5 1.5 1
    endloop
  endfacet
  facet normal -1 0 0
    outer loop
      vertex 19.5 19.5 12
      vertex 19.5 19.5 1
      vertex 19.5 1.5 12
    endloop
  endfacet
  facet normal -1 0 0
    outer loop
      vertex 19.5 1.5 12
      vertex 19.5 19.5 1
      vertex 19.5 1.5 1
    endloop
  endfacet
  facet normal 0 -1 0
    outer loop
      vertex 19.5 19.5 1
      vertex 19.5 19.5 12
      vertex 1.5 19.5 12
    endloop
  endfacet
  facet normal 0 -1 0
    outer loop
      vertex 1.5 19.5 1
      vertex 19.5 19.5 1
      vertex 1.5 19.5 12
    endloop
  endfacet
  facet normal 1 0 0
    outer loop
      vertex 1.5 39 1
      vertex 1.5 39 12
      vertex 1.5 21 12
    endloop
  endfacet
  facet normal 1 0 0
    outer loop
      vertex 1.5 21 1
      vertex 1.5 39 1
      vertex 1.5 21 12
    endloop
  endfacet
  facet normal 0 1 0
    outer loop
      vertex 19.5 21 12
      vertex 19.5 21 1
      vertex 1.5 21 12
    endloop
  endfacet
  facet normal 0 1 0
    outer loop
      vertex 1.5 21 12
      vertex 19.5 21 1
      vertex 1.5 21 1
    endloop
  endfacet
  facet normal -1 0 0
    outer loop
      vertex 19.5 39 12
      vertex 19.5 39 1
      vertex 19.5 21 12
    endloop
  endfacet
  facet normal -1 0 0
    outer loop
      vertex 19.5 21 12
      vertex 19.5 39 1
      vertex 19.5 21 1
    endloop
  endfacet
  facet normal 0 -1 0
    outer loop
      vertex 19.5 39 1
      vertex 19.5 39 12
      vertex 1.5 39 12
    endloop
  endfacet
  facet normal 0 -1 0
    outer loop
      vertex 1.5 39 1
      vertex 19.5 39 1
      vertex 1.5 39 12
    endloop
  endfacet
  facet normal 1 0 0
    outer loop
      vertex 1.5 58.5 1
      vertex 1.5 58.5 12
      vertex 1.5 40.5 12
    endloop
  endfacet
  facet normal 1 0 0
    outer loop
      vertex 1.5 40.5 1
      vertex 1.5 58.5 1
      vertex 1.5 40.5 12
    endloop
  endfacet
  facet normal 0 1 0
    outer loop
      vertex 19.5 40.5 12
      vertex 19.5 40.5 1
      vertex 1.5 40.5 12
    endloop
  endfacet
  facet normal 0 1 0
    outer loop
      vertex 1.5 40.5 12
      vertex 19.5 40.5 1
      vertex 1.5 40.5 1
    endloop
  endfacet
  facet normal -1 0 0
    outer loop
      vertex 19.5 58.5 12
      vertex 19.5 58.5 1
      vertex 19.5 40.5 12
    endloop
  endfacet
  facet normal -1 0 0
    outer loop
      vertex 19.5 40.5 12
      vertex 19.5 58.5 1
      vertex 19.5 40.5 1
    endloop
  endfacet
  facet normal 0 -1 0
    outer loop
      vertex 19.5 58.5 1
      vertex 19.5 58.5 12
      vertex 1.5 58.5 12
    endloop
  endfacet
  facet normal 0 -1 0
    outer loop
      vertex 1.5 58.5 1
      vertex 19.5 58.5 1
      vertex 1.5 58.5 12
    endloop
  endfacet
  facet normal 1 0 0
    outer loop
      vertex 21 19.5 1
      vertex 21 19.5 12
      vertex 21 1.5 12
    endloop
  endfacet
  facet normal 1 0 0
    outer loop
      vertex 21 1.5 1
      vertex 21 19.5 1
      vertex 21 1.5 12
    endloop
  endfacet
  facet normal 0 1 0
    outer loop
      vertex 39 1.5 12
      vertex 39 1.5 1
      vertex 21 1.5 12
    endloop
  endfacet
  facet normal 0 1 0
    outer loop
      vertex 21 1.5 12
      vertex 39 1.5 1
      vertex 21 1.5 1
    endloop
  endfacet
  facet normal -1 0 0
    outer loop
      vertex 39 19.5 12
      vertex 39 19.5 1
      vertex 39 1.5 12
    endloop
  endfacet
  facet normal -1 0 0
    outer loop
      vertex 39 1.5 12
      vertex 39 19.5 1
      vertex 39 1.5 1
    endloop
  endfacet
  facet normal 0 -1 0
    outer loop
      vertex 39 19.5 1
      vertex 39 19.5 12
      vertex 21 19.5 12
    endloop
  endfacet
  facet normal 0 -1 0
    outer loop
      vertex 21 19.5 1
      vertex 39 19.5 1
      vertex 21 19.5 12
    endloop
  endfacet
  facet normal 1 0 0
    outer loop
      vertex 21 39 1
      vertex 21 39 12
      vertex 21 21 12
    endloop
  endfacet
  facet normal 1 0 0
    outer loop
      vertex 21 21 1
      vertex 21 39 1
      vertex 21 21 12
    endloop
  endfacet
  facet normal 0 1 0
    outer loop
      vertex 39 21 12
      vertex 39 21 1
      vertex 21 21 12
    endloop
  endfacet
  facet normal 0 1 0
    outer loop
      vertex 21 21 12
      vertex 39 21 1
      vertex 21 21 1
    endloop
  endfacet
  facet normal -1 0 0
    outer loop
      vertex 39 39 12
      vertex 39 39 1
      vertex 39 21 12
    endloop
  endfacet
  facet normal -1 0 0
    outer loop
      vertex 39 21 12
      vertex 39 39 1
      vertex 39 21 1
    endloop
  endfacet
  facet normal 0 -1 0
    outer loop
      vertex 39 39 1
      vertex 39 39 12
      vertex 21 39 12
    endloop
  endfacet
  facet normal 0 -1 0
    outer loop
      vertex 21 39 1
      vertex 39 39 1
      vertex 21 39 12
    endloop
  endfacet
  facet normal 1 0 0
    outer loop
      vertex 21 58.5 1
      vertex 21 58.5 12
      vertex 21 40.5 12
    endloop
  endfacet
  facet normal 1 0 0
    outer loop
      vertex 21 40.5 1
      vertex 21 58.5 1
      vertex 21 40.5 12
    endloop
  endfacet
  facet normal 0 1 0
    outer loop
      vertex 39 40.5 12
      vertex 39 40.5 1
      vertex 21 40.5 12
    endloop
  endfacet
  facet normal 0 1 0
    outer loop
      vertex 21 40.5 12
      vertex 39 40.5 1
      vertex 21 40.5 1
    endloop
  endfacet
  facet normal -1 0 0
    outer loop
      vertex 39 58.5 12
      vertex 39 58.5 1
      vertex 39 40.5 12
    endloop
  endfacet
  facet normal -1 0 0
    outer loop
      vertex 39 40.5 12
      vertex 39 58.5 1
      vertex 39 40.5 1
    endloop
  endfacet
  facet normal 0 -1 0
    outer loop
      vertex 39 58.5 1
      vertex 39 58.5 12
      vertex 21 58.5 12
    endloop
  endfacet
  facet normal 0 -1 0
    outer loop
      vertex 21 58.5 1
      vertex 39 58.5 1
      vertex 21 58.5 12
    endloop
  endfacet
  facet normal 1 0 0
    outer loop
      vertex 40.5 19.5 1
      vertex 40.5 19.5 12
      vertex 40.5 1.5 12
    endloop
  endfacet
  facet normal 1 0 0
    outer loop
      vertex 40.5 1.5 1
      vertex 40.5 19.5 1
      vertex 40.5 1.5 12
    endloop
  endfacet
  facet normal 0 1 0
    outer loop
      vertex 58.5 1.5 12
      vertex 58.5 1.5 1
      vertex 40.5 1.5 12
    endloop
  endfacet
  facet normal 0 1 0
    outer loop
      vertex 40.5 1.5 12
      vertex 58.5 1.5 1
      vertex 40.5 1.5 1
    endloop
  endfacet
  facet normal -1 0 0
    outer loop
      vertex 58.5 19.5 12
      vertex 58.5 19.5 1
      vertex 58.5 1.5 12
    endloop
  endfacet
  facet normal -1 0 0
    outer loop
      vertex 58.5 1.5 12
      vertex 58.5 19.5 1
      vertex 58.5 1.5 1
    endloop
  endfacet
  facet normal 0 -1 0
    outer loop
      vertex 58.5 19.5 1
      vertex 58.5 19.5 12
      vertex 40.5 19.5 12
    endloop
  endfacet
  facet normal 0 -1 0
    outer loop
      vertex 40.5 19.5 1
      vertex 58.5 19.5 1
      vertex 40.5 19.5 12
    endloop
  endfacet
  facet normal 1 0 0
    outer loop
      vertex 40.5 39 1
      vertex 40.5 39 12
      vertex 40.5 21 12
    endloop
  endfacet
  facet normal 1 0 0
    outer loop
      vertex 40.5 21 1
      vertex 40.5 39 1
      vertex 40.5 21 12
    endloop
  endfacet
  facet normal 0 1 0
    outer loop
      vertex 58.5 21 12
      vertex 58.5 21 1
      vertex 40.5 21 12
    endloop
  endfacet
  facet normal 0 1 0
    outer loop
      vertex 40.5 21 12
      vertex 58.5 21 1
      vertex 40.5 21 1
    endloop
  endfacet
  facet normal -1 0 0
    outer loop
      vertex 58.5 39 12
      vertex 58.5 39 1
      vertex 58.5 21 12
    endloop
  endfacet
  facet normal -1 0 0
    outer loop
      vertex 58.5 21 12
      vertex 58.5 39 1
      vertex 58.5 21 1
    endloop
  endfacet
  facet normal 0 -1 0
    outer loop
      vertex 58.5 39 1
      vertex 58.5 39 12
      vertex 40.5 39 12
    endloop
  endfacet
  facet normal 0 -1 0
    outer loop
      vertex 40.5 39 1
      vertex 58.5 39 1
      vertex 40.5 39 12
    endloop
  endfacet
  facet normal 1 0 0
    outer loop
      vertex 40.5 58.5 1
      vertex 40.5 58.5 12
      vertex 40.5 40.5 12
    endloop
  endfacet
  facet normal 1 0 0
    outer loop
      vertex 40.5 40.5 1
      vertex 40.5 58.5 1
      vertex 40.5 40.5 12
    endloop
  endfacet
  facet normal 0 1 0
    outer loop
      vertex 58.5 40.5 12
      vertex 58.5 40.5 1
      vertex 40.5 40.5 12
    endloop
  endfacet
  facet normal 0 1 0
    outer loop
      vertex 40.5 40.5 12
      vertex 58.5 40.5 1
      vertex 40.5 40.5 1
    endloop
  endfacet
  facet normal -1 0 0
    outer loop
      vertex 58.5 58.5 12
      vertex 58.5 58.5 1
      vertex 58.5 40.5 12
    endloop
  endfacet
  facet normal -1 0 0
    outer loop
      vertex 58.5 40.5 12
      vertex 58.5 58.5 1
      vertex 58.5 40.5 1
    endloop
  endfacet
  facet normal 0 -1 0
    outer loop
      vertex 58.5 58.5 1
      vertex 58.5 58.5 12
      vertex 40.5 58.5 12
    endloop
  endfacet
  facet normal 0 -1 0
    outer loop
      vertex 40.5 58.5 1
      vertex 58.5 58.5 1
      vertex 40.5 58.5 12
    endloop
  endfacet
  facet normal 0 0 1
    outer loop
      vertex 19.5 1.5 1
      vertex 19.5 19.5 1
      vertex 1.5 19.5 1
    endloop
  endfacet
  facet normal 0 0 1
    outer loop
      vertex 1.5 1.5 1
      vertex 19.5 1.5 1
      vertex 1.5 19.5 1
    endloop
  endfacet
  facet normal 0 0 1
    outer loop
      vertex 19.5 21 1
      vertex 19.5 39 1
      vertex 1.5 39 1
    endloop
  endfacet
  facet normal 0 0 1
    outer loop
      vertex 1.5 21 1
      vertex 19.5 21 1
      vertex 1.5 39 1
    endloop
  endfacet
  facet normal 0 0 1
    outer loop
      vertex 19.5 40.5 1
      vertex 19.5 58.5 1
      vertex 1.5 58.5 1
    endloop
  endfacet
  facet normal 0 0 1
    outer loop
      vertex 1.5 40.5 1
      vertex 19.5 40.5 1
      vertex 1.5 58.5 1
    endloop
  endfacet
  facet normal 0 0 1
    outer loop
      vertex 39 1.5 1
      vertex 39 19.5 1
      vertex 21 19.5 1
    endloop
  endfacet
  facet normal 0 0 1
    outer loop
      vertex 21 1.5 1
      vertex 39 1.5 1
      vertex 21 19.5 1
    endloop
  endfacet
  facet normal 0 0 1
    outer loop
      vertex 39 21 1
      vertex 39 39 1
      vertex 21 39 1
    endloop
  endfacet
  facet normal 0 0 1
    outer loop
      vertex 21 21 1
      vertex 39 21 1
      vertex 21 39 1
    endloop
  endfacet
  facet normal 0 0 1
    outer loop
      vertex 39 40.5 1
      vertex 39 58.5 1
      vertex 21 58.5 1
    endloop
  endfacet
  facet normal 0 0 1
    outer loop
      vertex 21 40.5 1
      vertex 39 40.5 1
      vertex 21 58.5 1
    endloop
  endfacet
  facet normal 0 0 1
    outer loop
      vertex 58.5 1.5 1
      vertex 58.5 19.5 1
      vertex 40.5 19.5 1
    endloop
  endfacet
  facet normal 0 0 1
    outer loop
      vertex 40.5 1.5 1
      vertex 58.5 1.5 1
      vertex 40.5 19.5 1
    endloop
  endfacet
  facet normal 0 0 1
    outer loop
      vertex 58.5 21 1
      vertex 58.5 39 1
      vertex 40.5 39 1
    endloop
  endfacet
  facet normal 0 0 1
    outer loop
      vertex 40.5 21 1
      vertex 58.5 21 1
      vertex 40.5 39 1
    endloop
  endfacet
  facet normal 0 0 1
    outer loop
      vertex 58.5 40.5 1
      vertex 58.5 58.5 1
      vertex 40.5 58.5 1
    endloop
  endfacet
  facet normal 0 0 1
    outer loop
      vertex 40.5 40.5 1
      vertex 58.5 40.5 1
      vertex 40.5 58.5 1
    endloop
  endfacet
endsolid OpenSCAD_Model
