solid OpenSCAD_Model
  facet normal -1 0 0
    outer loop
      vertex 0 0 0
      vertex 0 0 2
      vertex 0 60 0
    endloop
  endfacet
  facet normal -1 0 0
    outer loop
      vertex 0 60 0
      vertex 0 0 2
      vertex 0 60 2
    endloop
  endfacet
  facet normal 0 -1 0
    outer loop
      vertex 0 0 2
      vertex 0 0 0
      vertex 60 0 0
    endloop
  endfacet
  facet normal 0 -1 0
    outer loop
      vertex 60 0 2
      vertex 0 0 2
      vertex 60 0 0
    endloop
  endfacet
  facet normal 0 0 -1
    outer loop
      vertex 0 0 0
      vertex 0 60 0
      vertex 60 0 0
    endloop
  endfacet
  facet normal 0 0 -1
    outer loop
      vertex 60 0 0
      vertex 0 60 0
      vertex 60 60 0
    endloop
  endfacet
  facet normal 0 1 0
    outer loop
      vertex 0 60 0
      vertex 0 60 2
      vertex 60 60 0
    endloop
  endfacet
  facet normal 0 1 0
    outer loop
      vertex 60 60 0
      vertex 0 60 2
      vertex 60 60 2
    endloop
  endfacet
  facet normal 0 0 1
    outer loop
      vertex 3 3 2
      vertex 0 0 2
      vertex 60 0 2
    endloop
  endfacet
  facet normal 0 0 1
    outer loop
      vertex 20 3 2
      vertex 3 3 2
      vertex 60 0 2
    endloop
  endfacet
  facet normal 0 0 1
    outer loop
      vertex 0 60 2
      vertex 0 0 2
      vertex 3 3 2
    endloop
  endfacet
  facet normal 0 0 1
    outer loop
      vertex 39.5 22.5 2
      vertex 22.5 22.5 2
      vertex 39.5 20 2
    endloop
  endfacet
  facet normal 0 0 1
    outer loop
      vertex 0 60 2
      vertex 3 3 2
      vertex 3 20 2
    endloop
  endfacet
  facet normal 0 0 1
    outer loop
      vertex 3 22.5 2
      vertex 3 20 2
      vertex 20 20 2
    endloop
  endfacet
  facet normal 0 0 1
    outer loop
      vertex 22.5 3 2
      vertex 20 3 2
      vertex 60 0 2
    endloop
  endfacet
  facet normal 0 0 1
    outer loop
      vertex 0 60 2
      vertex 3 20 2
      vertex 3 22.5 2
    endloop
  endfacet
  facet normal 0 0 1
    outer loop
      vertex 22.5 22.5 2
      vertex 22.5 39.5 2
      vertex 20 42 2
    endloop
  endfacet
  facet normal 0 0 1
    outer loop
      vertex 0 60 2
      vertex 3 22.5 2
      vertex 3 39.5 2
    endloop
  endfacet
  facet normal 0 0 1
    outer loop
      vertex 22.5 22.5 2
      vertex 20 42 2
      vertex 20 39.5 2
    endloop
  endfacet
  facet normal 0 0 1
    outer loop
      vertex 20 42 2
      vertex 3 42 2
      vertex 20 39.5 2
    endloop
  endfacet
  facet normal 0 0 1
    outer loop
      vertex 3 42 2
      vertex 3 59 2
      vertex 0 60 2
    endloop
  endfacet
  facet normal 0 0 1
    outer loop
      vertex 3 39.5 2
      vertex 20 39.5 2
      vertex 3 42 2
    endloop
  endfacet
  facet normal 0 0 1
    outer loop
      vertex 0 60 2
      vertex 3 39.5 2
      vertex 3 42 2
    endloop
  endfacet
  facet normal 0 0 1
    outer loop
      vertex 22.5 3 2
      vertex 22.5 20 2
      vertex 20 20 2
    endloop
  endfacet
  facet normal 0 0 1
    outer loop
      vertex 60 60 2
      vertex 0 60 2
      vertex 3 59 2
    endloop
  endfacet
  facet normal 0 0 1
    outer loop
      vertex 22.5 42 2
      vertex 22.5 59 2
      vertex 20 59 2
    endloop
  endfacet
  facet normal 0 0 1
    outer loop
      vertex 60 60 2
      vertex 3 59 2
      vertex 20 59 2
    endloop
  endfacet
  facet normal 0 0 1
    outer loop
      vertex 39.5 3 2
      vertex 22.5 3 2
      vertex 60 0 2
    endloop
  endfacet
  facet normal 0 0 1
    outer loop
      vertex 20 22.5 2
      vertex 20 20 2
      vertex 22.5 20 2
    endloop
  endfacet
  facet normal 0 0 1
    outer loop
      vertex 39.5 39.5 2
      vertex 42 20 2
      vertex 42 22.5 2
    endloop
  endfacet
  facet normal 0 0 1
    outer loop
      vertex 22.5 22.5 2
      vertex 20 22.5 2
      vertex 39.5 20 2
    endloop
  endfacet
  facet normal 0 0 1
    outer loop
      vertex 42 3 2
      vertex 39.5 3 2
      vertex 60 0 2
    endloop
  endfacet
  facet normal 0 0 1
    outer loop
      vertex 39.5 39.5 2
      vertex 39.5 22.5 2
      vertex 42 20 2
    endloop
  endfacet
  facet normal 0 0 1
    outer loop
      vertex 20 39.5 2
      vertex 20 22.5 2
      vertex 22.5 22.5 2
    endloop
  endfacet
  facet normal 0 0 1
    outer loop
      vertex 42 3 2
      vertex 39.5 22.5 2
      vertex 39.5 20 2
    endloop
  endfacet
  facet normal 0 0 1
    outer loop
      vertex 20 59 2
      vertex 20 42 2
      vertex 22.5 39.5 2
    endloop
  endfacet
  facet normal 0 0 1
    outer loop
      vertex 42 3 2
      vertex 42 20 2
      vertex 39.5 22.5 2
    endloop
  endfacet
  facet normal 0 0 1
    outer loop
      vertex 42 20 2
      vertex 59 20 2
      vertex 42 22.5 2
    endloop
  endfacet
  facet normal 0 0 1
    outer loop
      vertex 59 3 2
      vertex 42 3 2
      vertex 60 0 2
    endloop
  endfacet
  facet normal 0 0 1
    outer loop
      vertex 20 59 2
      vertex 22.5 39.5 2
      vertex 22.5 42 2
    endloop
  endfacet
  facet normal 0 0 1
    outer loop
      vertex 60 60 2
      vertex 20 59 2
      vertex 22.5 59 2
    endloop
  endfacet
  facet normal 0 0 1
    outer loop
      vertex 60 60 2
      vertex 22.5 59 2
      vertex 39.5 59 2
    endloop
  endfacet
  facet normal 0 0 1
    outer loop
      vertex 42 42 2
      vertex 39.5 42 2
      vertex 39.5 39.5 2
    endloop
  endfacet
  facet normal 0 0 1
    outer loop
      vertex 42 59 2
      vertex 39.5 59 2
      vertex 39.5 42 2
    endloop
  endfacet
  facet normal 0 0 1
    outer loop
      vertex 20 22.5 2
      vertex 3 22.5 2
      vertex 20 20 2
    endloop
  endfacet
  facet normal 0 0 1
    outer loop
      vertex 59 22.5 2
      vertex 42 22.5 2
      vertex 59 20 2
    endloop
  endfacet
  facet normal 0 0 1
    outer loop
      vertex 60 60 2
      vertex 59 20 2
      vertex 60 0 2
    endloop
  endfacet
  facet normal 0 0 1
    outer loop
      vertex 59 20 2
      vertex 59 3 2
      vertex 60 0 2
    endloop
  endfacet
  facet normal 0 0 1
    outer loop
      vertex 42 22.5 2
      vertex 42 39.5 2
      vertex 39.5 39.5 2
    endloop
  endfacet
  facet normal 0 0 1
    outer loop
      vertex 39.5 42 2
      vertex 22.5 42 2
      vertex 39.5 39.5 2
    endloop
  endfacet
  facet normal 0 0 1
    outer loop
      vertex 59 42 2
      vertex 42 42 2
      vertex 42 39.5 2
    endloop
  endfacet
  facet normal 0 0 1
    outer loop
      vertex 42 42 2
      vertex 39.5 39.5 2
      vertex 42 39.5 2
    endloop
  endfacet
  facet normal 0 0 1
    outer loop
      vertex 59 42 2
      vertex 42 39.5 2
      vertex 59 39.5 2
    endloop
  endfacet
  facet normal 0 0 1
    outer loop
      vertex 60 60 2
      vertex 59 22.5 2
      vertex 59 20 2
    endloop
  endfacet
  facet normal 0 0 1
    outer loop
      vertex 60 60 2
      vertex 59 39.5 2
      vertex 59 22.5 2
    endloop
  endfacet
  facet normal 0 0 1
    outer loop
      vertex 42 59 2
      vertex 59 59 2
      vertex 60 60 2
    endloop
  endfacet
  facet normal 0 0 1
    outer loop
      vertex 60 60 2
      vertex 39.5 59 2
      vertex 42 59 2
    endloop
  endfacet
  facet normal 0 0 1
    outer loop
      vertex 60 60 2
      vertex 59 42 2
      vertex 59 39.5 2
    endloop
  endfacet
  facet normal 0 0 1
    outer loop
      vertex 42 42 2
      vertex 42 59 2
      vertex 39.5 42 2
    endloop
  endfacet
  facet normal 0 0 1
    outer loop
      vertex 22.5 20 2
      vertex 39.5 20 2
      vertex 20 22.5 2
    endloop
  endfacet
  facet normal 0 0 1
    outer loop
      vertex 39.5 20 2
      vertex 39.5 3 2
      vertex 42 3 2
    endloop
  endfacet
  facet normal 0 0 1
    outer loop
      vertex 59 59 2
      vertex 59 42 2
      vertex 60 60 2
    endloop
  endfacet
  facet normal 0 0 1
    outer loop
      vertex 20 20 2
      vertex 20 3 2
      vertex 22.5 3 2
    endloop
  endfacet
  facet normal 0 0 1
    outer loop
      vertex 22.5 39.5 2
      vertex 39.5 39.5 2
      vertex 22.5 42 2
    endloop
  endfacet
  facet normal 1 0 0
    outer loop
      vertex 60 0 2
      vertex 60 0 0
      vertex 60 60 0
    endloop
  endfacet
  facet normal 1 0 0
    outer loop
      vertex 60 60 2
      vertex 60 0 2
      vertex 60 60 0
    endloop
  endfacet
  facet normal -1 0 0
    outer loop
      vertex 3 3 2
      vertex 3 3 3
      vertex 3 20 2
    endloop
  endfacet
  facet normal -1 0 0
    outer loop
      vertex 3 20 2
      vertex 3 3 3
      vertex 3 20 3
    endloop
  endfacet
  facet normal 0 -1 0
    outer loop
      vertex 3 3 3
      vertex 3 3 2
      vertex 20 3 2
    endloop
  endfacet
  facet normal 0 -1 0
    outer loop
      vertex 20 3 3
      vertex 3 3 3
      vertex 20 3 2
    endloop
  endfacet
  facet normal 1 0 0
    outer loop
      vertex 20 3 3
      vertex 20 3 2
      vertex 20 20 2
    endloop
  endfacet
  facet normal 1 0 0
    outer loop
      vertex 20 20 3
      vertex 20 3 3
      vertex 20 20 2
    endloop
  endfacet
  facet normal 0 1 0
    outer loop
      vertex 3 20 2
      vertex 3 20 3
      vertex 20 20 2
    endloop
  endfacet
  facet normal 0 1 0
    outer loop
      vertex 20 20 2
      vertex 3 20 3
      vertex 20 20 3
    endloop
  endfacet
  facet normal -1 0 0
    outer loop
      vertex 3 22.5 2
      vertex 3 22.5 3
      vertex 3 39.5 2
    endloop
  endfacet
  facet normal -1 0 0
    outer loop
      vertex 3 39.5 2
      vertex 3 22.5 3
      vertex 3 39.5 3
    endloop
  endfacet
  facet normal 0 -1 0
    outer loop
      vertex 3 22.5 3
      vertex 3 22.5 2
      vertex 20 22.5 2
    endloop
  endfacet
  facet normal 0 -1 0
    outer loop
      vertex 20 22.5 3
      vertex 3 22.5 3
      vertex 20 22.5 2
    endloop
  endfacet
  facet normal 1 0 0
    outer loop
      vertex 20 22.5 3
      vertex 20 22.5 2
      vertex 20 39.5 2
    endloop
  endfacet
  facet normal 1 0 0
    outer loop
      vertex 20 39.5 3
      vertex 20 22.5 3
      vertex 20 39.5 2
    endloop
  endfacet
  facet normal 0 1 0
    outer loop
      vertex 3 39.5 2
      vertex 3 39.5 3
      vertex 20 39.5 2
    endloop
  endfacet
  facet normal 0 1 0
    outer loop
      vertex 20 39.5 2
      vertex 3 39.5 3
      vertex 20 39.5 3
    endloop
  endfacet
  facet normal -1 0 0
    outer loop
      vertex 3 42 2
      vertex 3 42 3
      vertex 3 59 2
    endloop
  endfacet
  facet normal -1 0 0
    outer loop
      vertex 3 59 2
      vertex 3 42 3
      vertex 3 59 3
    endloop
  endfacet
  facet normal 0 -1 0
    outer loop
      vertex 3 42 3
      vertex 3 42 2
      vertex 20 42 2
    endloop
  endfacet
  facet normal 0 -1 0
    outer loop
      vertex 20 42 3
      vertex 3 42 3
      vertex 20 42 2
    endloop
  endfacet
  facet normal 1 0 0
    outer loop
      vertex 20 42 3
      vertex 20 42 2
      vertex 20 59 2
    endloop
  endfacet
  facet normal 1 0 0
    outer loop
      vertex 20 59 3
      vertex 20 42 3
      vertex 20 59 2
    endloop
  endfacet
  facet normal 0 1 0
    outer loop
      vertex 3 59 2
      vertex 3 59 3
      vertex 20 59 2
    endloop
  endfacet
  facet normal 0 1 0
    outer loop
      vertex 20 59 2
      vertex 3 59 3
      vertex 20 59 3
    endloop
  endfacet
  facet normal -1 0 0
    outer loop
      vertex 22.5 3 2
      vertex 22.5 3 3
      vertex 22.5 20 2
    endloop
  endfacet
  facet normal -1 0 0
    outer loop
      vertex 22.5 20 2
      vertex 22.5 3 3
      vertex 22.5 20 3
    endloop
  endfacet
  facet normal 0 -1 0
    outer loop
      vertex 22.5 3 3
      vertex 22.5 3 2
      vertex 39.5 3 2
    endloop
  endfacet
  facet normal 0 -1 0
    outer loop
      vertex 39.5 3 3
      vertex 22.5 3 3
      vertex 39.5 3 2
    endloop
  endfacet
  facet normal 1 0 0
    outer loop
      vertex 39.5 3 3
      vertex 39.5 3 2
      vertex 39.5 20 2
    endloop
  endfacet
  facet normal 1 0 0
    outer loop
      vertex 39.5 20 3
      vertex 39.5 3 3
      vertex 39.5 20 2
    endloop
  endfacet
  facet normal 0 1 0
    outer loop
      vertex 22.5 20 2
      vertex 22.5 20 3
      vertex 39.5 20 2
    endloop
  endfacet
  facet normal 0 1 0
    outer loop
      vertex 39.5 20 2
      vertex 22.5 20 3
      vertex 39.5 20 3
    endloop
  endfacet
  facet normal -1 0 0
    outer loop
      vertex 22.5 22.5 2
      vertex 22.5 22.5 3
      vertex 22.5 39.5 2
    endloop
  endfacet
  facet normal -1 0 0
    outer loop
      vertex 22.5 39.5 2
      vertex 22.5 22.5 3
      vertex 22.5 39.5 3
    endloop
  endfacet
  facet normal 0 -1 0
    outer loop
      vertex 22.5 22.5 3
      vertex 22.5 22.5 2
      vertex 39.5 22.5 2
    endloop
  endfacet
  facet normal 0 -1 0
    outer loop
      vertex 39.5 22.5 3
      vertex 22.5 22.5 3
      vertex 39.5 22.5 2
    endloop
  endfacet
  facet normal 1 0 0
    outer loop
      vertex 39.5 22.5 3
      vertex 39.5 22.5 2
      vertex 39.5 39.5 2
    endloop
  endfacet
  facet normal 1 0 0
    outer loop
      vertex 39.5 39.5 3
      vertex 39.5 22.5 3
      vertex 39.5 39.5 2
    endloop
  endfacet
  facet normal 0 1 0
    outer loop
      vertex 22.5 39.5 2
      vertex 22.5 39.5 3
      vertex 39.5 39.5 2
    endloop
  endfacet
  facet normal 0 1 0
    outer loop
      vertex 39.5 39.5 2
      vertex 22.5 39.5 3
      vertex 39.5 39.5 3
    endloop
  endfacet
  facet normal -1 0 0
    outer loop
      vertex 22.5 42 2
      vertex 22.5 42 3
      vertex 22.5 59 2
    endloop
  endfacet
  facet normal -1 0 0
    outer loop
      vertex 22.5 59 2
      vertex 22.5 42 3
      vertex 22.5 59 3
    endloop
  endfacet
  facet normal 0 -1 0
    outer loop
      vertex 22.5 42 3
      vertex 22.5 42 2
      vertex 39.5 42 2
    endloop
  endfacet
  facet normal 0 -1 0
    outer loop
      vertex 39.5 42 3
      vertex 22.5 42 3
      vertex 39.5 42 2
    endloop
  endfacet
  facet normal 1 0 0
    outer loop
      vertex 39.5 42 3
      vertex 39.5 42 2
      vertex 39.5 59 2
    endloop
  endfacet
  facet normal 1 0 0
    outer loop
      vertex 39.5 59 3
      vertex 39.5 42 3
      vertex 39.5 59 2
    endloop
  endfacet
  facet normal 0 1 0
    outer loop
      vertex 22.5 59 2
      vertex 22.5 59 3
      vertex 39.5 59 2
    endloop
  endfacet
  facet normal 0 1 0
    outer loop
      vertex 39.5 59 2
      vertex 22.5 59 3
      vertex 39.5 59 3
    endloop
  endfacet
  facet normal -1 0 0
    outer loop
      vertex 42 3 2
      vertex 42 3 3
      vertex 42 20 2
    endloop
  endfacet
  facet normal -1 0 0
    outer loop
      vertex 42 20 2
      vertex 42 3 3
      vertex 42 20 3
    endloop
  endfacet
  facet normal 0 -1 0
    outer loop
      vertex 42 3 3
      vertex 42 3 2
      vertex 59 3 2
    endloop
  endfacet
  facet normal 0 -1 0
    outer loop
      vertex 59 3 3
      vertex 42 3 3
      vertex 59 3 2
    endloop
  endfacet
  facet normal 1 0 0
    outer loop
      vertex 59 3 3
      vertex 59 3 2
      vertex 59 20 2
    endloop
  endfacet
  facet normal 1 0 0
    outer loop
      vertex 59 20 3
      vertex 59 3 3
      vertex 59 20 2
    endloop
  endfacet
  facet normal 0 1 0
    outer loop
      vertex 42 20 2
      vertex 42 20 3
      vertex 59 20 2
    endloop
  endfacet
  facet normal 0 1 0
    outer loop
      vertex 59 20 2
      vertex 42 20 3
      vertex 59 20 3
    endloop
  endfacet
  facet normal -1 0 0
    outer loop
      vertex 42 22.5 2
      vertex 42 22.5 3
      vertex 42 39.5 2
    endloop
  endfacet
  facet normal -1 0 0
    outer loop
      vertex 42 39.5 2
      vertex 42 22.5 3
      vertex 42 39.5 3
    endloop
  endfacet
  facet normal 0 -1 0
    outer loop
      vertex 42 22.5 3
      vertex 42 22.5 2
      vertex 59 22.5 2
    endloop
  endfacet
  facet normal 0 -1 0
    outer loop
      vertex 59 22.5 3
      vertex 42 22.5 3
      vertex 59 22.5 2
    endloop
  endfacet
  facet normal 1 0 0
    outer loop
      vertex 59 22.5 3
      vertex 59 22.5 2
      vertex 59 39.5 2
    endloop
  endfacet
  facet normal 1 0 0
    outer loop
      vertex 59 39.5 3
      vertex 59 22.5 3
      vertex 59 39.5 2
    endloop
  endfacet
  facet normal 0 1 0
    outer loop
      vertex 42 39.5 2
      vertex 42 39.5 3
      vertex 59 39.5 2
    endloop
  endfacet
  facet normal 0 1 0
    outer loop
      vertex 59 39.5 2
      vertex 42 39.5 3
      vertex 59 39.5 3
    endloop
  endfacet
  facet normal -1 0 0
    outer loop
      vertex 42 42 2
      vertex 42 42 3
      vertex 42 59 2
    endloop
  endfacet
  facet normal -1 0 0
    outer loop
      vertex 42 59 2
      vertex 42 42 3
      vertex 42 59 3
    endloop
  endfacet
  facet normal 0 -1 0
    outer loop
      vertex 42 42 3
      vertex 42 42 2
      vertex 59 42 2
    endloop
  endfacet
  facet normal 0 -1 0
    outer loop
      vertex 59 42 3
      vertex 42 42 3
      vertex 59 42 2
    endloop
  endfacet
  facet normal 1 0 0
    outer loop
      vertex 59 42 3
      vertex 59 42 2
      vertex 59 59 2
    endloop
  endfacet
  facet normal 1 0 0
    outer loop
      vertex 59 59 3
      vertex 59 42 3
      vertex 59 59 2
    endloop
  endfacet
  facet normal 0 1 0
    outer loop
      vertex 42 59 2
      vertex 42 59 3
      vertex 59 59 2
    endloop
  endfacet
  facet normal 0 1 0
    outer loop
      vertex 59 59 2
      vertex 42 59 3
      vertex 59 59 3
    endloop
  endfacet
  facet normal 0 0 1
    outer loop
      vertex 3 20 3
      vertex 3 3 3
      vertex 20 3 3
    endloop
  endfacet
  facet normal 0 0 1
    outer loop
      vertex 20 20 3
      vertex 3 20 3
      vertex 20 3 3
    endloop
  endfacet
  facet normal 0 0 1
    outer loop
      vertex 3 39.5 3
      vertex 3 22.5 3
      vertex 20 22.5 3
    endloop
  endfacet
  facet normal 0 0 1
    outer loop
      vertex 20 39.5 3
      vertex 3 39.5 3
      vertex 20 22.5 3
    endloop
  endfacet
  facet normal 0 0 1
    outer loop
      vertex 3 59 3
      vertex 3 42 3
      vertex 20 42 3
    endloop
  endfacet
  facet normal 0 0 1
    outer loop
      vertex 20 59 3
      vertex 3 59 3
      vertex 20 42 3
    endloop
  endfacet
  facet normal 0 0 1
    outer loop
      vertex 22.5 20 3
      vertex 22.5 3 3
      vertex 39.5 3 3
    endloop
  endfacet
  facet normal 0 0 1
    outer loop
      vertex 39.5 20 3
      vertex 22.5 20 3
      vertex 39.5 3 3
    endloop
  endfacet
  facet normal 0 0 1
    outer loop
      vertex 22.5 39.5 3
      vertex 22.5 22.5 3
      vertex 39.5 22.5 3
    endloop
  endfacet
  facet normal 0 0 1
    outer loop
      vertex 39.5 39.5 3
      vertex 22.5 39.5 3
      vertex 39.5 22.5 3
    endloop
  endfacet
  facet normal 0 0 1
    outer loop
      vertex 22.5 59 3
      vertex 22.5 42 3
      vertex 39.5 42 3
    endloop
  endfacet
  facet normal 0 0 1
    outer loop
      vertex 39.5 59 3
      vertex 22.5 59 3
      vertex 39.5 42 3
    endloop
  endfacet
  facet normal 0 0 1
    outer loop
      vertex 42 20 3
      vertex 42 3 3
      vertex 59 3 3
    endloop
  endfacet
  facet normal 0 0 1
    outer loop
      vertex 59 20 3
      vertex 42 20 3
      vertex 59 3 3
    endloop
  endfacet
  facet normal 0 0 1
    outer loop
      vertex 42 39.5 3
      vertex 42 22.5 3
      vertex 59 22.5 3
    endloop
  endfacet
  facet normal 0 0 1
    outer loop
      vertex 59 39.5 3
      vertex 42 39.5 3
      vertex 59 22.5 3
    endloop
  endfacet
  facet normal 0 0 1
    outer loop
      vertex 42 59 3
      vertex 42 42 3
      vertex 59 42 3
    endloop
  endfacet
  facet normal 0 0 1
    outer loop
      vertex 59 59 3
      vertex 42 59 3
      vertex 59 42 3
    endloop
  endfacet
endsolid OpenSCAD_Model
