solid OpenSCAD_Model
  facet normal -1 0 0
    outer loop
      vertex 0 0 0
      vertex 0 0 2
      vertex 0 65 0
    endloop
  endfacet
  facet normal -1 0 0
    outer loop
      vertex 0 65 0
      vertex 0 0 2
      vertex 0 65 2
    endloop
  endfacet
  facet normal 0 -1 0
    outer loop
      vertex 0 0 2
      vertex 0 0 0
      vertex 65 0 0
    endloop
  endfacet
  facet normal 0 -1 0
    outer loop
      vertex 65 0 2
      vertex 0 0 2
      vertex 65 0 0
    endloop
  endfacet
  facet normal 0 0 -1
    outer loop
      vertex 0 0 0
      vertex 0 65 0
      vertex 65 0 0
    endloop
  endfacet
  facet normal 0 0 -1
    outer loop
      vertex 65 0 0
      vertex 0 65 0
      vertex 65 65 0
    endloop
  endfacet
  facet normal 0 1 0
    outer loop
      vertex 0 65 0
      vertex 0 65 2
      vertex 65 65 0
    endloop
  endfacet
  facet normal 0 1 0
    outer loop
      vertex 65 65 0
      vertex 0 65 2
      vertex 65 65 2
    endloop
  endfacet
  facet normal 0 0 1
    outer loop
      vertex 5 5 2
      vertex 0 0 2
      vertex 65 0 2
    endloop
  endfacet
  facet normal 0 0 1
    outer loop
      vertex 60 24.5 2
      vertex 44 24.5 2
      vertex 60 21 2
    endloop
  endfacet
  facet normal 0 0 1
    outer loop
      vertex 21 5 2
      vertex 5 5 2
      vertex 65 0 2
    endloop
  endfacet
  facet normal 0 0 1
    outer loop
      vertex 0 65 2
      vertex 0 0 2
      vertex 5 5 2
    endloop
  endfacet
  facet normal 0 0 1
    outer loop
      vertex 40.5 24.5 2
      vertex 24.5 24.5 2
      vertex 40.5 21 2
    endloop
  endfacet
  facet normal 0 0 1
    outer loop
      vertex 0 65 2
      vertex 5 5 2
      vertex 5 21 2
    endloop
  endfacet
  facet normal 0 0 1
    outer loop
      vertex 60 21 2
      vertex 60 5 2
      vertex 65 0 2
    endloop
  endfacet
  facet normal 0 0 1
    outer loop
      vertex 5 24.5 2
      vertex 5 21 2
      vertex 21 21 2
    endloop
  endfacet
  facet normal 0 0 1
    outer loop
      vertex 24.5 5 2
      vertex 21 5 2
      vertex 65 0 2
    endloop
  endfacet
  facet normal 0 0 1
    outer loop
      vertex 0 65 2
      vertex 5 21 2
      vertex 5 24.5 2
    endloop
  endfacet
  facet normal 0 0 1
    outer loop
      vertex 44 5 2
      vertex 44 21 2
      vertex 40.5 21 2
    endloop
  endfacet
  facet normal 0 0 1
    outer loop
      vertex 0 65 2
      vertex 5 24.5 2
      vertex 5 40.5 2
    endloop
  endfacet
  facet normal 0 0 1
    outer loop
      vertex 40.5 40.5 2
      vertex 44 21 2
      vertex 44 24.5 2
    endloop
  endfacet
  facet normal 0 0 1
    outer loop
      vertex 24.5 5 2
      vertex 24.5 21 2
      vertex 21 21 2
    endloop
  endfacet
  facet normal 0 0 1
    outer loop
      vertex 5 44 2
      vertex 5 60 2
      vertex 0 65 2
    endloop
  endfacet
  facet normal 0 0 1
    outer loop
      vertex 5 40.5 2
      vertex 21 40.5 2
      vertex 5 44 2
    endloop
  endfacet
  facet normal 0 0 1
    outer loop
      vertex 0 65 2
      vertex 5 40.5 2
      vertex 5 44 2
    endloop
  endfacet
  facet normal 0 0 1
    outer loop
      vertex 65 65 2
      vertex 0 65 2
      vertex 5 60 2
    endloop
  endfacet
  facet normal 0 0 1
    outer loop
      vertex 24.5 44 2
      vertex 24.5 60 2
      vertex 21 60 2
    endloop
  endfacet
  facet normal 0 0 1
    outer loop
      vertex 65 65 2
      vertex 5 60 2
      vertex 21 60 2
    endloop
  endfacet
  facet normal 0 0 1
    outer loop
      vertex 24.5 40.5 2
      vertex 21 44 2
      vertex 21 40.5 2
    endloop
  endfacet
  facet normal 0 0 1
    outer loop
      vertex 40.5 5 2
      vertex 24.5 5 2
      vertex 65 0 2
    endloop
  endfacet
  facet normal 0 0 1
    outer loop
      vertex 21 24.5 2
      vertex 21 21 2
      vertex 24.5 21 2
    endloop
  endfacet
  facet normal 0 0 1
    outer loop
      vertex 24.5 24.5 2
      vertex 24.5 40.5 2
      vertex 21 40.5 2
    endloop
  endfacet
  facet normal 0 0 1
    outer loop
      vertex 24.5 24.5 2
      vertex 21 24.5 2
      vertex 40.5 21 2
    endloop
  endfacet
  facet normal 0 0 1
    outer loop
      vertex 44 5 2
      vertex 40.5 5 2
      vertex 65 0 2
    endloop
  endfacet
  facet normal 0 0 1
    outer loop
      vertex 21 44 2
      vertex 5 44 2
      vertex 21 40.5 2
    endloop
  endfacet
  facet normal 0 0 1
    outer loop
      vertex 21 40.5 2
      vertex 21 24.5 2
      vertex 24.5 24.5 2
    endloop
  endfacet
  facet normal 0 0 1
    outer loop
      vertex 21 60 2
      vertex 21 44 2
      vertex 24.5 40.5 2
    endloop
  endfacet
  facet normal 0 0 1
    outer loop
      vertex 44 24.5 2
      vertex 44 40.5 2
      vertex 40.5 40.5 2
    endloop
  endfacet
  facet normal 0 0 1
    outer loop
      vertex 60 5 2
      vertex 44 5 2
      vertex 65 0 2
    endloop
  endfacet
  facet normal 0 0 1
    outer loop
      vertex 21 60 2
      vertex 24.5 40.5 2
      vertex 24.5 44 2
    endloop
  endfacet
  facet normal 0 0 1
    outer loop
      vertex 60 60 2
      vertex 60 44 2
      vertex 65 65 2
    endloop
  endfacet
  facet normal 0 0 1
    outer loop
      vertex 65 65 2
      vertex 21 60 2
      vertex 24.5 60 2
    endloop
  endfacet
  facet normal 0 0 1
    outer loop
      vertex 65 65 2
      vertex 24.5 60 2
      vertex 40.5 60 2
    endloop
  endfacet
  facet normal 0 0 1
    outer loop
      vertex 44 44 2
      vertex 40.5 44 2
      vertex 40.5 40.5 2
    endloop
  endfacet
  facet normal 0 0 1
    outer loop
      vertex 44 60 2
      vertex 40.5 60 2
      vertex 40.5 44 2
    endloop
  endfacet
  facet normal 0 0 1
    outer loop
      vertex 21 24.5 2
      vertex 5 24.5 2
      vertex 21 21 2
    endloop
  endfacet
  facet normal 0 0 1
    outer loop
      vertex 40.5 40.5 2
      vertex 40.5 24.5 2
      vertex 44 21 2
    endloop
  endfacet
  facet normal 0 0 1
    outer loop
      vertex 65 65 2
      vertex 60 21 2
      vertex 65 0 2
    endloop
  endfacet
  facet normal 0 0 1
    outer loop
      vertex 40.5 44 2
      vertex 24.5 44 2
      vertex 40.5 40.5 2
    endloop
  endfacet
  facet normal 0 0 1
    outer loop
      vertex 44 21 2
      vertex 60 21 2
      vertex 44 24.5 2
    endloop
  endfacet
  facet normal 0 0 1
    outer loop
      vertex 60 44 2
      vertex 44 44 2
      vertex 44 40.5 2
    endloop
  endfacet
  facet normal 0 0 1
    outer loop
      vertex 44 44 2
      vertex 40.5 40.5 2
      vertex 44 40.5 2
    endloop
  endfacet
  facet normal 0 0 1
    outer loop
      vertex 60 44 2
      vertex 44 40.5 2
      vertex 60 40.5 2
    endloop
  endfacet
  facet normal 0 0 1
    outer loop
      vertex 65 65 2
      vertex 60 24.5 2
      vertex 60 21 2
    endloop
  endfacet
  facet normal 0 0 1
    outer loop
      vertex 65 65 2
      vertex 60 40.5 2
      vertex 60 24.5 2
    endloop
  endfacet
  facet normal 0 0 1
    outer loop
      vertex 44 60 2
      vertex 60 60 2
      vertex 65 65 2
    endloop
  endfacet
  facet normal 0 0 1
    outer loop
      vertex 65 65 2
      vertex 40.5 60 2
      vertex 44 60 2
    endloop
  endfacet
  facet normal 0 0 1
    outer loop
      vertex 65 65 2
      vertex 60 44 2
      vertex 60 40.5 2
    endloop
  endfacet
  facet normal 0 0 1
    outer loop
      vertex 44 44 2
      vertex 44 60 2
      vertex 40.5 44 2
    endloop
  endfacet
  facet normal 0 0 1
    outer loop
      vertex 24.5 21 2
      vertex 40.5 21 2
      vertex 21 24.5 2
    endloop
  endfacet
  facet normal 0 0 1
    outer loop
      vertex 40.5 21 2
      vertex 40.5 5 2
      vertex 44 5 2
    endloop
  endfacet
  facet normal 0 0 1
    outer loop
      vertex 40.5 24.5 2
      vertex 40.5 21 2
      vertex 44 21 2
    endloop
  endfacet
  facet normal 0 0 1
    outer loop
      vertex 21 21 2
      vertex 21 5 2
      vertex 24.5 5 2
    endloop
  endfacet
  facet normal 0 0 1
    outer loop
      vertex 24.5 40.5 2
      vertex 40.5 40.5 2
      vertex 24.5 44 2
    endloop
  endfacet
  facet normal 1 0 0
    outer loop
      vertex 65 0 2
      vertex 65 0 0
      vertex 65 65 0
    endloop
  endfacet
  facet normal 1 0 0
    outer loop
      vertex 65 65 2
      vertex 65 0 2
      vertex 65 65 0
    endloop
  endfacet
  facet normal -1 0 0
    outer loop
      vertex 5 5 2
      vertex 5 5 3
      vertex 5 21 2
    endloop
  endfacet
  facet normal -1 0 0
    outer loop
      vertex 5 21 2
      vertex 5 5 3
      vertex 5 21 3
    endloop
  endfacet
  facet normal 0 -1 0
    outer loop
      vertex 5 5 3
      vertex 5 5 2
      vertex 21 5 2
    endloop
  endfacet
  facet normal 0 -1 0
    outer loop
      vertex 21 5 3
      vertex 5 5 3
      vertex 21 5 2
    endloop
  endfacet
  facet normal 1 0 0
    outer loop
      vertex 21 5 3
      vertex 21 5 2
      vertex 21 21 2
    endloop
  endfacet
  facet normal 1 0 0
    outer loop
      vertex 21 21 3
      vertex 21 5 3
      vertex 21 21 2
    endloop
  endfacet
  facet normal 0 1 0
    outer loop
      vertex 5 21 2
      vertex 5 21 3
      vertex 21 21 2
    endloop
  endfacet
  facet normal 0 1 0
    outer loop
      vertex 21 21 2
      vertex 5 21 3
      vertex 21 21 3
    endloop
  endfacet
  facet normal -1 0 0
    outer loop
      vertex 5 24.5 2
      vertex 5 24.5 3
      vertex 5 40.5 2
    endloop
  endfacet
  facet normal -1 0 0
    outer loop
      vertex 5 40.5 2
      vertex 5 24.5 3
      vertex 5 40.5 3
    endloop
  endfacet
  facet normal 0 -1 0
    outer loop
      vertex 5 24.5 3
      vertex 5 24.5 2
      vertex 21 24.5 2
    endloop
  endfacet
  facet normal 0 -1 0
    outer loop
      vertex 21 24.5 3
      vertex 5 24.5 3
      vertex 21 24.5 2
    endloop
  endfacet
  facet normal 1 0 0
    outer loop
      vertex 21 24.5 3
      vertex 21 24.5 2
      vertex 21 40.5 2
    endloop
  endfacet
  facet normal 1 0 0
    outer loop
      vertex 21 40.5 3
      vertex 21 24.5 3
      vertex 21 40.5 2
    endloop
  endfacet
  facet normal 0 1 0
    outer loop
      vertex 5 40.5 2
      vertex 5 40.5 3
      vertex 21 40.5 2
    endloop
  endfacet
  facet normal 0 1 0
    outer loop
      vertex 21 40.5 2
      vertex 5 40.5 3
      vertex 21 40.5 3
    endloop
  endfacet
  facet normal -1 0 0
    outer loop
      vertex 5 44 2
      vertex 5 44 3
      vertex 5 60 2
    endloop
  endfacet
  facet normal -1 0 0
    outer loop
      vertex 5 60 2
      vertex 5 44 3
      vertex 5 60 3
    endloop
  endfacet
  facet normal 0 -1 0
    outer loop
      vertex 5 44 3
      vertex 5 44 2
      vertex 21 44 2
    endloop
  endfacet
  facet normal 0 -1 0
    outer loop
      vertex 21 44 3
      vertex 5 44 3
      vertex 21 44 2
    endloop
  endfacet
  facet normal 1 0 0
    outer loop
      vertex 21 44 3
      vertex 21 44 2
      vertex 21 60 2
    endloop
  endfacet
  facet normal 1 0 0
    outer loop
      vertex 21 60 3
      vertex 21 44 3
      vertex 21 60 2
    endloop
  endfacet
  facet normal 0 1 0
    outer loop
      vertex 5 60 2
      vertex 5 60 3
      vertex 21 60 2
    endloop
  endfacet
  facet normal 0 1 0
    outer loop
      vertex 21 60 2
      vertex 5 60 3
      vertex 21 60 3
    endloop
  endfacet
  facet normal -1 0 0
    outer loop
      vertex 24.5 5 2
      vertex 24.5 5 3
      vertex 24.5 21 2
    endloop
  endfacet
  facet normal -1 0 0
    outer loop
      vertex 24.5 21 2
      vertex 24.5 5 3
      vertex 24.5 21 3
    endloop
  endfacet
  facet normal 0 -1 0
    outer loop
      vertex 24.5 5 3
      vertex 24.5 5 2
      vertex 40.5 5 2
    endloop
  endfacet
  facet normal 0 -1 0
    outer loop
      vertex 40.5 5 3
      vertex 24.5 5 3
      vertex 40.5 5 2
    endloop
  endfacet
  facet normal 1 0 0
    outer loop
      vertex 40.5 5 3
      vertex 40.5 5 2
      vertex 40.5 21 2
    endloop
  endfacet
  facet normal 1 0 0
    outer loop
      vertex 40.5 21 3
      vertex 40.5 5 3
      vertex 40.5 21 2
    endloop
  endfacet
  facet normal 0 1 0
    outer loop
      vertex 24.5 21 2
      vertex 24.5 21 3
      vertex 40.5 21 2
    endloop
  endfacet
  facet normal 0 1 0
    outer loop
      vertex 40.5 21 2
      vertex 24.5 21 3
      vertex 40.5 21 3
    endloop
  endfacet
  facet normal -1 0 0
    outer loop
      vertex 24.5 24.5 2
      vertex 24.5 24.5 3
      vertex 24.5 40.5 2
    endloop
  endfacet
  facet normal -1 0 0
    outer loop
      vertex 24.5 40.5 2
      vertex 24.5 24.5 3
      vertex 24.5 40.5 3
    endloop
  endfacet
  facet normal 0 -1 0
    outer loop
      vertex 24.5 24.5 3
      vertex 24.5 24.5 2
      vertex 40.5 24.5 2
    endloop
  endfacet
  facet normal 0 -1 0
    outer loop
      vertex 40.5 24.5 3
      vertex 24.5 24.5 3
      vertex 40.5 24.5 2
    endloop
  endfacet
  facet normal 1 0 0
    outer loop
      vertex 40.5 24.5 3
      vertex 40.5 24.5 2
      vertex 40.5 40.5 2
    endloop
  endfacet
  facet normal 1 0 0
    outer loop
      vertex 40.5 40.5 3
      vertex 40.5 24.5 3
      vertex 40.5 40.5 2
    endloop
  endfacet
  facet normal 0 1 0
    outer loop
      vertex 24.5 40.5 2
      vertex 24.5 40.5 3
      vertex 40.5 40.5 2
    endloop
  endfacet
  facet normal 0 1 0
    outer loop
      vertex 40.5 40.5 2
      vertex 24.5 40.5 3
      vertex 40.5 40.5 3
    endloop
  endfacet
  facet normal -1 0 0
    outer loop
      vertex 24.5 44 2
      vertex 24.5 44 3
      vertex 24.5 60 2
    endloop
  endfacet
  facet normal -1 0 0
    outer loop
      vertex 24.5 60 2
      vertex 24.5 44 3
      vertex 24.5 60 3
    endloop
  endfacet
  facet normal 0 -1 0
    outer loop
      vertex 24.5 44 3
      vertex 24.5 44 2
      vertex 40.5 44 2
    endloop
  endfacet
  facet normal 0 -1 0
    outer loop
      vertex 40.5 44 3
      vertex 24.5 44 3
      vertex 40.5 44 2
    endloop
  endfacet
  facet normal 1 0 0
    outer loop
      vertex 40.5 44 3
      vertex 40.5 44 2
      vertex 40.5 60 2
    endloop
  endfacet
  facet normal 1 0 0
    outer loop
      vertex 40.5 60 3
      vertex 40.5 44 3
      vertex 40.5 60 2
    endloop
  endfacet
  facet normal 0 1 0
    outer loop
      vertex 24.5 60 2
      vertex 24.5 60 3
      vertex 40.5 60 2
    endloop
  endfacet
  facet normal 0 1 0
    outer loop
      vertex 40.5 60 2
      vertex 24.5 60 3
      vertex 40.5 60 3
    endloop
  endfacet
  facet normal -1 0 0
    outer loop
      vertex 44 5 2
      vertex 44 5 3
      vertex 44 21 2
    endloop
  endfacet
  facet normal -1 0 0
    outer loop
      vertex 44 21 2
      vertex 44 5 3
      vertex 44 21 3
    endloop
  endfacet
  facet normal 0 -1 0
    outer loop
      vertex 44 5 3
      vertex 44 5 2
      vertex 60 5 2
    endloop
  endfacet
  facet normal 0 -1 0
    outer loop
      vertex 60 5 3
      vertex 44 5 3
      vertex 60 5 2
    endloop
  endfacet
  facet normal 1 0 0
    outer loop
      vertex 60 5 3
      vertex 60 5 2
      vertex 60 21 2
    endloop
  endfacet
  facet normal 1 0 0
    outer loop
      vertex 60 21 3
      vertex 60 5 3
      vertex 60 21 2
    endloop
  endfacet
  facet normal 0 1 0
    outer loop
      vertex 44 21 2
      vertex 44 21 3
      vertex 60 21 2
    endloop
  endfacet
  facet normal 0 1 0
    outer loop
      vertex 60 21 2
      vertex 44 21 3
      vertex 60 21 3
    endloop
  endfacet
  facet normal -1 0 0
    outer loop
      vertex 44 24.5 2
      vertex 44 24.5 3
      vertex 44 40.5 2
    endloop
  endfacet
  facet normal -1 0 0
    outer loop
      vertex 44 40.5 2
      vertex 44 24.5 3
      vertex 44 40.5 3
    endloop
  endfacet
  facet normal 0 -1 0
    outer loop
      vertex 44 24.5 3
      vertex 44 24.5 2
      vertex 60 24.5 2
    endloop
  endfacet
  facet normal 0 -1 0
    outer loop
      vertex 60 24.5 3
      vertex 44 24.5 3
      vertex 60 24.5 2
    endloop
  endfacet
  facet normal 1 0 0
    outer loop
      vertex 60 24.5 3
      vertex 60 24.5 2
      vertex 60 40.5 2
    endloop
  endfacet
  facet normal 1 0 0
    outer loop
      vertex 60 40.5 3
      vertex 60 24.5 3
      vertex 60 40.5 2
    endloop
  endfacet
  facet normal 0 1 0
    outer loop
      vertex 44 40.5 2
      vertex 44 40.5 3
      vertex 60 40.5 2
    endloop
  endfacet
  facet normal 0 1 0
    outer loop
      vertex 60 40.5 2
      vertex 44 40.5 3
      vertex 60 40.5 3
    endloop
  endfacet
  facet normal -1 0 0
    outer loop
      vertex 44 44 2
      vertex 44 44 3
      vertex 44 60 2
    endloop
  endfacet
  facet normal -1 0 0
    outer loop
      vertex 44 60 2
      vertex 44 44 3
      vertex 44 60 3
    endloop
  endfacet
  facet normal 0 -1 0
    outer loop
      vertex 44 44 3
      vertex 44 44 2
      vertex 60 44 2
    endloop
  endfacet
  facet normal 0 -1 0
    outer loop
      vertex 60 44 3
      vertex 44 44 3
      vertex 60 44 2
    endloop
  endfacet
  facet normal 1 0 0
    outer loop
      vertex 60 44 3
      vertex 60 44 2
      vertex 60 60 2
    endloop
  endfacet
  facet normal 1 0 0
    outer loop
      vertex 60 60 3
      vertex 60 44 3
      vertex 60 60 2
    endloop
  endfacet
  facet normal 0 1 0
    outer loop
      vertex 44 60 2
      vertex 44 60 3
      vertex 60 60 2
    endloop
  endfacet
  facet normal 0 1 0
    outer loop
      vertex 60 60 2
      vertex 44 60 3
      vertex 60 60 3
    endloop
  endfacet
  facet normal 0 0 1
    outer loop
      vertex 5 21 3
      vertex 5 5 3
      vertex 21 5 3
    endloop
  endfacet
  facet normal 0 0 1
    outer loop
      vertex 21 21 3
      vertex 5 21 3
      vertex 21 5 3
    endloop
  endfacet
  facet normal 0 0 1
    outer loop
      vertex 5 40.5 3
      vertex 5 24.5 3
      vertex 21 24.5 3
    endloop
  endfacet
  facet normal 0 0 1
    outer loop
      vertex 21 40.5 3
      vertex 5 40.5 3
      vertex 21 24.5 3
    endloop
  endfacet
  facet normal 0 0 1
    outer loop
      vertex 5 60 3
      vertex 5 44 3
      vertex 21 44 3
    endloop
  endfacet
  facet normal 0 0 1
    outer loop
      vertex 21 60 3
      vertex 5 60 3
      vertex 21 44 3
    endloop
  endfacet
  facet normal 0 0 1
    outer loop
      vertex 24.5 21 3
      vertex 24.5 5 3
      vertex 40.5 5 3
    endloop
  endfacet
  facet normal 0 0 1
    outer loop
      vertex 40.5 21 3
      vertex 24.5 21 3
      vertex 40.5 5 3
    endloop
  endfacet
  facet normal 0 0 1
    outer loop
      vertex 24.5 40.5 3
      vertex 24.5 24.5 3
      vertex 40.5 24.5 3
    endloop
  endfacet
  facet normal 0 0 1
    outer loop
      vertex 40.5 40.5 3
      vertex 24.5 40.5 3
      vertex 40.5 24.5 3
    endloop
  endfacet
  facet normal 0 0 1
    outer loop
      vertex 24.5 60 3
      vertex 24.5 44 3
      vertex 40.5 44 3
    endloop
  endfacet
  facet normal 0 0 1
    outer loop
      vertex 40.5 60 3
      vertex 24.5 60 3
      vertex 40.5 44 3
    endloop
  endfacet
  facet normal 0 0 1
    outer loop
      vertex 44 21 3
      vertex 44 5 3
      vertex 60 5 3
    endloop
  endfacet
  facet normal 0 0 1
    outer loop
      vertex 60 21 3
      vertex 44 21 3
      vertex 60 5 3
    endloop
  endfacet
  facet normal 0 0 1
    outer loop
      vertex 44 40.5 3
      vertex 44 24.5 3
      vertex 60 24.5 3
    endloop
  endfacet
  facet normal 0 0 1
    outer loop
      vertex 60 40.5 3
      vertex 44 40.5 3
      vertex 60 24.5 3
    endloop
  endfacet
  facet normal 0 0 1
    outer loop
      vertex 44 60 3
      vertex 44 44 3
      vertex 60 44 3
    endloop
  endfacet
  facet normal 0 0 1
    outer loop
      vertex 60 60 3
      vertex 44 60 3
      vertex 60 44 3
    endloop
  endfacet
endsolid OpenSCAD_Model
