solid OpenSCAD_Model
  facet normal -1 0 0
    outer loop
      vertex 0 0 0
      vertex 0 0 2
      vertex 0 65 0
    endloop
  endfacet
  facet normal -1 0 0
    outer loop
      vertex 0 65 0
      vertex 0 0 2
      vertex 0 65 2
    endloop
  endfacet
  facet normal 0 -1 0
    outer loop
      vertex 0 0 2
      vertex 0 0 0
      vertex 65 0 0
    endloop
  endfacet
  facet normal 0 -1 0
    outer loop
      vertex 65 0 2
      vertex 0 0 2
      vertex 65 0 0
    endloop
  endfacet
  facet normal 0 0 -1
    outer loop
      vertex 0 0 0
      vertex 0 65 0
      vertex 65 0 0
    endloop
  endfacet
  facet normal 0 0 -1
    outer loop
      vertex 65 0 0
      vertex 0 65 0
      vertex 65 65 0
    endloop
  endfacet
  facet normal 0 1 0
    outer loop
      vertex 0 65 0
      vertex 0 65 2
      vertex 65 65 0
    endloop
  endfacet
  facet normal 0 1 0
    outer loop
      vertex 65 65 0
      vertex 0 65 2
      vertex 65 65 2
    endloop
  endfacet
  facet normal 0 0 1
    outer loop
      vertex 5.5 5.5 2
      vertex 0 0 2
      vertex 65 0 2
    endloop
  endfacet
  facet normal 0 0 1
    outer loop
      vertex 59.5 25 2
      vertex 44.5 25 2
      vertex 59.5 20.5 2
    endloop
  endfacet
  facet normal 0 0 1
    outer loop
      vertex 20.5 5.5 2
      vertex 5.5 5.5 2
      vertex 65 0 2
    endloop
  endfacet
  facet normal 0 0 1
    outer loop
      vertex 0 65 2
      vertex 0 0 2
      vertex 5.5 5.5 2
    endloop
  endfacet
  facet normal 0 0 1
    outer loop
      vertex 40 25 2
      vertex 25 25 2
      vertex 40 20.5 2
    endloop
  endfacet
  facet normal 0 0 1
    outer loop
      vertex 0 65 2
      vertex 5.5 5.5 2
      vertex 5.5 20.5 2
    endloop
  endfacet
  facet normal 0 0 1
    outer loop
      vertex 59.5 20.5 2
      vertex 59.5 5.5 2
      vertex 65 0 2
    endloop
  endfacet
  facet normal 0 0 1
    outer loop
      vertex 5.5 25 2
      vertex 5.5 20.5 2
      vertex 20.5 20.5 2
    endloop
  endfacet
  facet normal 0 0 1
    outer loop
      vertex 25 5.5 2
      vertex 20.5 5.5 2
      vertex 65 0 2
    endloop
  endfacet
  facet normal 0 0 1
    outer loop
      vertex 0 65 2
      vertex 5.5 20.5 2
      vertex 5.5 25 2
    endloop
  endfacet
  facet normal 0 0 1
    outer loop
      vertex 44.5 5.5 2
      vertex 44.5 20.5 2
      vertex 40 20.5 2
    endloop
  endfacet
  facet normal 0 0 1
    outer loop
      vertex 0 65 2
      vertex 5.5 25 2
      vertex 5.5 40 2
    endloop
  endfacet
  facet normal 0 0 1
    outer loop
      vertex 40 40 2
      vertex 44.5 20.5 2
      vertex 44.5 25 2
    endloop
  endfacet
  facet normal 0 0 1
    outer loop
      vertex 25 5.5 2
      vertex 25 20.5 2
      vertex 20.5 20.5 2
    endloop
  endfacet
  facet normal 0 0 1
    outer loop
      vertex 5.5 44.5 2
      vertex 5.5 59.5 2
      vertex 0 65 2
    endloop
  endfacet
  facet normal 0 0 1
    outer loop
      vertex 5.5 40 2
      vertex 20.5 40 2
      vertex 5.5 44.5 2
    endloop
  endfacet
  facet normal 0 0 1
    outer loop
      vertex 0 65 2
      vertex 5.5 40 2
      vertex 5.5 44.5 2
    endloop
  endfacet
  facet normal 0 0 1
    outer loop
      vertex 65 65 2
      vertex 0 65 2
      vertex 5.5 59.5 2
    endloop
  endfacet
  facet normal 0 0 1
    outer loop
      vertex 25 44.5 2
      vertex 25 59.5 2
      vertex 20.5 59.5 2
    endloop
  endfacet
  facet normal 0 0 1
    outer loop
      vertex 65 65 2
      vertex 5.5 59.5 2
      vertex 20.5 59.5 2
    endloop
  endfacet
  facet normal 0 0 1
    outer loop
      vertex 25 40 2
      vertex 20.5 44.5 2
      vertex 20.5 40 2
    endloop
  endfacet
  facet normal 0 0 1
    outer loop
      vertex 40 5.5 2
      vertex 25 5.5 2
      vertex 65 0 2
    endloop
  endfacet
  facet normal 0 0 1
    outer loop
      vertex 20.5 25 2
      vertex 20.5 20.5 2
      vertex 25 20.5 2
    endloop
  endfacet
  facet normal 0 0 1
    outer loop
      vertex 25 25 2
      vertex 25 40 2
      vertex 20.5 40 2
    endloop
  endfacet
  facet normal 0 0 1
    outer loop
      vertex 25 25 2
      vertex 20.5 25 2
      vertex 40 20.5 2
    endloop
  endfacet
  facet normal 0 0 1
    outer loop
      vertex 44.5 5.5 2
      vertex 40 5.5 2
      vertex 65 0 2
    endloop
  endfacet
  facet normal 0 0 1
    outer loop
      vertex 20.5 44.5 2
      vertex 5.5 44.5 2
      vertex 20.5 40 2
    endloop
  endfacet
  facet normal 0 0 1
    outer loop
      vertex 20.5 40 2
      vertex 20.5 25 2
      vertex 25 25 2
    endloop
  endfacet
  facet normal 0 0 1
    outer loop
      vertex 20.5 59.5 2
      vertex 20.5 44.5 2
      vertex 25 40 2
    endloop
  endfacet
  facet normal 0 0 1
    outer loop
      vertex 44.5 25 2
      vertex 44.5 40 2
      vertex 40 40 2
    endloop
  endfacet
  facet normal 0 0 1
    outer loop
      vertex 59.5 5.5 2
      vertex 44.5 5.5 2
      vertex 65 0 2
    endloop
  endfacet
  facet normal 0 0 1
    outer loop
      vertex 20.5 59.5 2
      vertex 25 40 2
      vertex 25 44.5 2
    endloop
  endfacet
  facet normal 0 0 1
    outer loop
      vertex 59.5 59.5 2
      vertex 59.5 44.5 2
      vertex 65 65 2
    endloop
  endfacet
  facet normal 0 0 1
    outer loop
      vertex 65 65 2
      vertex 20.5 59.5 2
      vertex 25 59.5 2
    endloop
  endfacet
  facet normal 0 0 1
    outer loop
      vertex 65 65 2
      vertex 25 59.5 2
      vertex 40 59.5 2
    endloop
  endfacet
  facet normal 0 0 1
    outer loop
      vertex 44.5 44.5 2
      vertex 40 44.5 2
      vertex 40 40 2
    endloop
  endfacet
  facet normal 0 0 1
    outer loop
      vertex 44.5 59.5 2
      vertex 40 59.5 2
      vertex 40 44.5 2
    endloop
  endfacet
  facet normal 0 0 1
    outer loop
      vertex 20.5 25 2
      vertex 5.5 25 2
      vertex 20.5 20.5 2
    endloop
  endfacet
  facet normal 0 0 1
    outer loop
      vertex 40 40 2
      vertex 40 25 2
      vertex 44.5 20.5 2
    endloop
  endfacet
  facet normal 0 0 1
    outer loop
      vertex 65 65 2
      vertex 59.5 20.5 2
      vertex 65 0 2
    endloop
  endfacet
  facet normal 0 0 1
    outer loop
      vertex 40 44.5 2
      vertex 25 44.5 2
      vertex 40 40 2
    endloop
  endfacet
  facet normal 0 0 1
    outer loop
      vertex 44.5 20.5 2
      vertex 59.5 20.5 2
      vertex 44.5 25 2
    endloop
  endfacet
  facet normal 0 0 1
    outer loop
      vertex 59.5 44.5 2
      vertex 44.5 44.5 2
      vertex 44.5 40 2
    endloop
  endfacet
  facet normal 0 0 1
    outer loop
      vertex 44.5 44.5 2
      vertex 40 40 2
      vertex 44.5 40 2
    endloop
  endfacet
  facet normal 0 0 1
    outer loop
      vertex 59.5 44.5 2
      vertex 44.5 40 2
      vertex 59.5 40 2
    endloop
  endfacet
  facet normal 0 0 1
    outer loop
      vertex 65 65 2
      vertex 59.5 25 2
      vertex 59.5 20.5 2
    endloop
  endfacet
  facet normal 0 0 1
    outer loop
      vertex 65 65 2
      vertex 59.5 40 2
      vertex 59.5 25 2
    endloop
  endfacet
  facet normal 0 0 1
    outer loop
      vertex 44.5 59.5 2
      vertex 59.5 59.5 2
      vertex 65 65 2
    endloop
  endfacet
  facet normal 0 0 1
    outer loop
      vertex 65 65 2
      vertex 40 59.5 2
      vertex 44.5 59.5 2
    endloop
  endfacet
  facet normal 0 0 1
    outer loop
      vertex 65 65 2
      vertex 59.5 44.5 2
      vertex 59.5 40 2
    endloop
  endfacet
  facet normal 0 0 1
    outer loop
      vertex 44.5 44.5 2
      vertex 44.5 59.5 2
      vertex 40 44.5 2
    endloop
  endfacet
  facet normal 0 0 1
    outer loop
      vertex 25 20.5 2
      vertex 40 20.5 2
      vertex 20.5 25 2
    endloop
  endfacet
  facet normal 0 0 1
    outer loop
      vertex 40 20.5 2
      vertex 40 5.5 2
      vertex 44.5 5.5 2
    endloop
  endfacet
  facet normal 0 0 1
    outer loop
      vertex 40 25 2
      vertex 40 20.5 2
      vertex 44.5 20.5 2
    endloop
  endfacet
  facet normal 0 0 1
    outer loop
      vertex 20.5 20.5 2
      vertex 20.5 5.5 2
      vertex 25 5.5 2
    endloop
  endfacet
  facet normal 0 0 1
    outer loop
      vertex 25 40 2
      vertex 40 40 2
      vertex 25 44.5 2
    endloop
  endfacet
  facet normal 1 0 0
    outer loop
      vertex 65 0 2
      vertex 65 0 0
      vertex 65 65 0
    endloop
  endfacet
  facet normal 1 0 0
    outer loop
      vertex 65 65 2
      vertex 65 0 2
      vertex 65 65 0
    endloop
  endfacet
  facet normal -1 0 0
    outer loop
      vertex 5.5 5.5 2
      vertex 5.5 5.5 3
      vertex 5.5 20.5 2
    endloop
  endfacet
  facet normal -1 0 0
    outer loop
      vertex 5.5 20.5 2
      vertex 5.5 5.5 3
      vertex 5.5 20.5 3
    endloop
  endfacet
  facet normal 0 -1 0
    outer loop
      vertex 5.5 5.5 3
      vertex 5.5 5.5 2
      vertex 20.5 5.5 2
    endloop
  endfacet
  facet normal 0 -1 0
    outer loop
      vertex 20.5 5.5 3
      vertex 5.5 5.5 3
      vertex 20.5 5.5 2
    endloop
  endfacet
  facet normal 1 0 0
    outer loop
      vertex 20.5 5.5 3
      vertex 20.5 5.5 2
      vertex 20.5 20.5 2
    endloop
  endfacet
  facet normal 1 0 0
    outer loop
      vertex 20.5 20.5 3
      vertex 20.5 5.5 3
      vertex 20.5 20.5 2
    endloop
  endfacet
  facet normal 0 1 0
    outer loop
      vertex 5.5 20.5 2
      vertex 5.5 20.5 3
      vertex 20.5 20.5 2
    endloop
  endfacet
  facet normal 0 1 0
    outer loop
      vertex 20.5 20.5 2
      vertex 5.5 20.5 3
      vertex 20.5 20.5 3
    endloop
  endfacet
  facet normal -1 0 0
    outer loop
      vertex 5.5 25 2
      vertex 5.5 25 3
      vertex 5.5 40 2
    endloop
  endfacet
  facet normal -1 0 0
    outer loop
      vertex 5.5 40 2
      vertex 5.5 25 3
      vertex 5.5 40 3
    endloop
  endfacet
  facet normal 0 -1 0
    outer loop
      vertex 5.5 25 3
      vertex 5.5 25 2
      vertex 20.5 25 2
    endloop
  endfacet
  facet normal 0 -1 0
    outer loop
      vertex 20.5 25 3
      vertex 5.5 25 3
      vertex 20.5 25 2
    endloop
  endfacet
  facet normal 1 0 0
    outer loop
      vertex 20.5 25 3
      vertex 20.5 25 2
      vertex 20.5 40 2
    endloop
  endfacet
  facet normal 1 0 0
    outer loop
      vertex 20.5 40 3
      vertex 20.5 25 3
      vertex 20.5 40 2
    endloop
  endfacet
  facet normal 0 1 0
    outer loop
      vertex 5.5 40 2
      vertex 5.5 40 3
      vertex 20.5 40 2
    endloop
  endfacet
  facet normal 0 1 0
    outer loop
      vertex 20.5 40 2
      vertex 5.5 40 3
      vertex 20.5 40 3
    endloop
  endfacet
  facet normal -1 0 0
    outer loop
      vertex 5.5 44.5 2
      vertex 5.5 44.5 3
      vertex 5.5 59.5 2
    endloop
  endfacet
  facet normal -1 0 0
    outer loop
      vertex 5.5 59.5 2
      vertex 5.5 44.5 3
      vertex 5.5 59.5 3
    endloop
  endfacet
  facet normal 0 -1 0
    outer loop
      vertex 5.5 44.5 3
      vertex 5.5 44.5 2
      vertex 20.5 44.5 2
    endloop
  endfacet
  facet normal 0 -1 0
    outer loop
      vertex 20.5 44.5 3
      vertex 5.5 44.5 3
      vertex 20.5 44.5 2
    endloop
  endfacet
  facet normal 1 0 0
    outer loop
      vertex 20.5 44.5 3
      vertex 20.5 44.5 2
      vertex 20.5 59.5 2
    endloop
  endfacet
  facet normal 1 0 0
    outer loop
      vertex 20.5 59.5 3
      vertex 20.5 44.5 3
      vertex 20.5 59.5 2
    endloop
  endfacet
  facet normal 0 1 0
    outer loop
      vertex 5.5 59.5 2
      vertex 5.5 59.5 3
      vertex 20.5 59.5 2
    endloop
  endfacet
  facet normal 0 1 0
    outer loop
      vertex 20.5 59.5 2
      vertex 5.5 59.5 3
      vertex 20.5 59.5 3
    endloop
  endfacet
  facet normal -1 0 0
    outer loop
      vertex 25 5.5 2
      vertex 25 5.5 3
      vertex 25 20.5 2
    endloop
  endfacet
  facet normal -1 0 0
    outer loop
      vertex 25 20.5 2
      vertex 25 5.5 3
      vertex 25 20.5 3
    endloop
  endfacet
  facet normal 0 -1 0
    outer loop
      vertex 25 5.5 3
      vertex 25 5.5 2
      vertex 40 5.5 2
    endloop
  endfacet
  facet normal 0 -1 0
    outer loop
      vertex 40 5.5 3
      vertex 25 5.5 3
      vertex 40 5.5 2
    endloop
  endfacet
  facet normal 1 0 0
    outer loop
      vertex 40 5.5 3
      vertex 40 5.5 2
      vertex 40 20.5 2
    endloop
  endfacet
  facet normal 1 0 0
    outer loop
      vertex 40 20.5 3
      vertex 40 5.5 3
      vertex 40 20.5 2
    endloop
  endfacet
  facet normal 0 1 0
    outer loop
      vertex 25 20.5 2
      vertex 25 20.5 3
      vertex 40 20.5 2
    endloop
  endfacet
  facet normal 0 1 0
    outer loop
      vertex 40 20.5 2
      vertex 25 20.5 3
      vertex 40 20.5 3
    endloop
  endfacet
  facet normal -1 0 0
    outer loop
      vertex 25 25 2
      vertex 25 25 3
      vertex 25 40 2
    endloop
  endfacet
  facet normal -1 0 0
    outer loop
      vertex 25 40 2
      vertex 25 25 3
      vertex 25 40 3
    endloop
  endfacet
  facet normal 0 -1 0
    outer loop
      vertex 25 25 3
      vertex 25 25 2
      vertex 40 25 2
    endloop
  endfacet
  facet normal 0 -1 0
    outer loop
      vertex 40 25 3
      vertex 25 25 3
      vertex 40 25 2
    endloop
  endfacet
  facet normal 1 0 0
    outer loop
      vertex 40 25 3
      vertex 40 25 2
      vertex 40 40 2
    endloop
  endfacet
  facet normal 1 0 0
    outer loop
      vertex 40 40 3
      vertex 40 25 3
      vertex 40 40 2
    endloop
  endfacet
  facet normal 0 1 0
    outer loop
      vertex 25 40 2
      vertex 25 40 3
      vertex 40 40 2
    endloop
  endfacet
  facet normal 0 1 0
    outer loop
      vertex 40 40 2
      vertex 25 40 3
      vertex 40 40 3
    endloop
  endfacet
  facet normal -1 0 0
    outer loop
      vertex 25 44.5 2
      vertex 25 44.5 3
      vertex 25 59.5 2
    endloop
  endfacet
  facet normal -1 0 0
    outer loop
      vertex 25 59.5 2
      vertex 25 44.5 3
      vertex 25 59.5 3
    endloop
  endfacet
  facet normal 0 -1 0
    outer loop
      vertex 25 44.5 3
      vertex 25 44.5 2
      vertex 40 44.5 2
    endloop
  endfacet
  facet normal 0 -1 0
    outer loop
      vertex 40 44.5 3
      vertex 25 44.5 3
      vertex 40 44.5 2
    endloop
  endfacet
  facet normal 1 0 0
    outer loop
      vertex 40 44.5 3
      vertex 40 44.5 2
      vertex 40 59.5 2
    endloop
  endfacet
  facet normal 1 0 0
    outer loop
      vertex 40 59.5 3
      vertex 40 44.5 3
      vertex 40 59.5 2
    endloop
  endfacet
  facet normal 0 1 0
    outer loop
      vertex 25 59.5 2
      vertex 25 59.5 3
      vertex 40 59.5 2
    endloop
  endfacet
  facet normal 0 1 0
    outer loop
      vertex 40 59.5 2
      vertex 25 59.5 3
      vertex 40 59.5 3
    endloop
  endfacet
  facet normal -1 0 0
    outer loop
      vertex 44.5 5.5 2
      vertex 44.5 5.5 3
      vertex 44.5 20.5 2
    endloop
  endfacet
  facet normal -1 0 0
    outer loop
      vertex 44.5 20.5 2
      vertex 44.5 5.5 3
      vertex 44.5 20.5 3
    endloop
  endfacet
  facet normal 0 -1 0
    outer loop
      vertex 44.5 5.5 3
      vertex 44.5 5.5 2
      vertex 59.5 5.5 2
    endloop
  endfacet
  facet normal 0 -1 0
    outer loop
      vertex 59.5 5.5 3
      vertex 44.5 5.5 3
      vertex 59.5 5.5 2
    endloop
  endfacet
  facet normal 1 0 0
    outer loop
      vertex 59.5 5.5 3
      vertex 59.5 5.5 2
      vertex 59.5 20.5 2
    endloop
  endfacet
  facet normal 1 0 0
    outer loop
      vertex 59.5 20.5 3
      vertex 59.5 5.5 3
      vertex 59.5 20.5 2
    endloop
  endfacet
  facet normal 0 1 0
    outer loop
      vertex 44.5 20.5 2
      vertex 44.5 20.5 3
      vertex 59.5 20.5 2
    endloop
  endfacet
  facet normal 0 1 0
    outer loop
      vertex 59.5 20.5 2
      vertex 44.5 20.5 3
      vertex 59.5 20.5 3
    endloop
  endfacet
  facet normal -1 0 0
    outer loop
      vertex 44.5 25 2
      vertex 44.5 25 3
      vertex 44.5 40 2
    endloop
  endfacet
  facet normal -1 0 0
    outer loop
      vertex 44.5 40 2
      vertex 44.5 25 3
      vertex 44.5 40 3
    endloop
  endfacet
  facet normal 0 -1 0
    outer loop
      vertex 44.5 25 3
      vertex 44.5 25 2
      vertex 59.5 25 2
    endloop
  endfacet
  facet normal 0 -1 0
    outer loop
      vertex 59.5 25 3
      vertex 44.5 25 3
      vertex 59.5 25 2
    endloop
  endfacet
  facet normal 1 0 0
    outer loop
      vertex 59.5 25 3
      vertex 59.5 25 2
      vertex 59.5 40 2
    endloop
  endfacet
  facet normal 1 0 0
    outer loop
      vertex 59.5 40 3
      vertex 59.5 25 3
      vertex 59.5 40 2
    endloop
  endfacet
  facet normal 0 1 0
    outer loop
      vertex 44.5 40 2
      vertex 44.5 40 3
      vertex 59.5 40 2
    endloop
  endfacet
  facet normal 0 1 0
    outer loop
      vertex 59.5 40 2
      vertex 44.5 40 3
      vertex 59.5 40 3
    endloop
  endfacet
  facet normal -1 0 0
    outer loop
      vertex 44.5 44.5 2
      vertex 44.5 44.5 3
      vertex 44.5 59.5 2
    endloop
  endfacet
  facet normal -1 0 0
    outer loop
      vertex 44.5 59.5 2
      vertex 44.5 44.5 3
      vertex 44.5 59.5 3
    endloop
  endfacet
  facet normal 0 -1 0
    outer loop
      vertex 44.5 44.5 3
      vertex 44.5 44.5 2
      vertex 59.5 44.5 2
    endloop
  endfacet
  facet normal 0 -1 0
    outer loop
      vertex 59.5 44.5 3
      vertex 44.5 44.5 3
      vertex 59.5 44.5 2
    endloop
  endfacet
  facet normal 1 0 0
    outer loop
      vertex 59.5 44.5 3
      vertex 59.5 44.5 2
      vertex 59.5 59.5 2
    endloop
  endfacet
  facet normal 1 0 0
    outer loop
      vertex 59.5 59.5 3
      vertex 59.5 44.5 3
      vertex 59.5 59.5 2
    endloop
  endfacet
  facet normal 0 1 0
    outer loop
      vertex 44.5 59.5 2
      vertex 44.5 59.5 3
      vertex 59.5 59.5 2
    endloop
  endfacet
  facet normal 0 1 0
    outer loop
      vertex 59.5 59.5 2
      vertex 44.5 59.5 3
      vertex 59.5 59.5 3
    endloop
  endfacet
  facet normal 0 0 1
    outer loop
      vertex 5.5 20.5 3
      vertex 5.5 5.5 3
      vertex 20.5 5.5 3
    endloop
  endfacet
  facet normal 0 0 1
    outer loop
      vertex 20.5 20.5 3
      vertex 5.5 20.5 3
      vertex 20.5 5.5 3
    endloop
  endfacet
  facet normal 0 0 1
    outer loop
      vertex 5.5 40 3
      vertex 5.5 25 3
      vertex 20.5 25 3
    endloop
  endfacet
  facet normal 0 0 1
    outer loop
      vertex 20.5 40 3
      vertex 5.5 40 3
      vertex 20.5 25 3
    endloop
  endfacet
  facet normal 0 0 1
    outer loop
      vertex 5.5 59.5 3
      vertex 5.5 44.5 3
      vertex 20.5 44.5 3
    endloop
  endfacet
  facet normal 0 0 1
    outer loop
      vertex 20.5 59.5 3
      vertex 5.5 59.5 3
      vertex 20.5 44.5 3
    endloop
  endfacet
  facet normal 0 0 1
    outer loop
      vertex 25 20.5 3
      vertex 25 5.5 3
      vertex 40 5.5 3
    endloop
  endfacet
  facet normal 0 0 1
    outer loop
      vertex 40 20.5 3
      vertex 25 20.5 3
      vertex 40 5.5 3
    endloop
  endfacet
  facet normal 0 0 1
    outer loop
      vertex 25 40 3
      vertex 25 25 3
      vertex 40 25 3
    endloop
  endfacet
  facet normal 0 0 1
    outer loop
      vertex 40 40 3
      vertex 25 40 3
      vertex 40 25 3
    endloop
  endfacet
  facet normal 0 0 1
    outer loop
      vertex 25 59.5 3
      vertex 25 44.5 3
      vertex 40 44.5 3
    endloop
  endfacet
  facet normal 0 0 1
    outer loop
      vertex 40 59.5 3
      vertex 25 59.5 3
      vertex 40 44.5 3
    endloop
  endfacet
  facet normal 0 0 1
    outer loop
      vertex 44.5 20.5 3
      vertex 44.5 5.5 3
      vertex 59.5 5.5 3
    endloop
  endfacet
  facet normal 0 0 1
    outer loop
      vertex 59.5 20.5 3
      vertex 44.5 20.5 3
      vertex 59.5 5.5 3
    endloop
  endfacet
  facet normal 0 0 1
    outer loop
      vertex 44.5 40 3
      vertex 44.5 25 3
      vertex 59.5 25 3
    endloop
  endfacet
  facet normal 0 0 1
    outer loop
      vertex 59.5 40 3
      vertex 44.5 40 3
      vertex 59.5 25 3
    endloop
  endfacet
  facet normal 0 0 1
    outer loop
      vertex 44.5 59.5 3
      vertex 44.5 44.5 3
      vertex 59.5 44.5 3
    endloop
  endfacet
  facet normal 0 0 1
    outer loop
      vertex 59.5 59.5 3
      vertex 44.5 59.5 3
      vertex 59.5 44.5 3
    endloop
  endfacet
endsolid OpenSCAD_Model
